<?xml version="1.0" encoding="utf-8"?>
<!-- Svg Vector Icons : http://www.onlinewebfonts.com/icon -->
<!DOCTYPE svg PUBLIC "-//W3C//DTD SVG 1.1//EN" "http://www.w3.org/Graphics/SVG/1.1/DTD/svg11.dtd">
<svg version="1.1" xmlns="http://www.w3.org/2000/svg" xmlns:xlink="http://www.w3.org/1999/xlink" x="0px" y="0px" viewBox="0 0 1000 1000" enable-background="new 0 0 1000 1000" xml:space="preserve">
<metadata> Svg Vector Icons : http://www.onlinewebfonts.com/icon </metadata>
<g><g transform="translate(0.000000,507.000000) scale(0.100000,-0.100000)"><path d="M4630.9,4901.7c-254.4-28.7-579.5-116.7-784.2-216.1c-684.7-329-1086.3-967.8-1239.4-1971.9c-61.2-395.9-61.2-1086.3-1.9-1434.4C2741.3,487.5,3053-300.4,3448.9-853.2c468.6-656,1067.2-998.4,1654.4-946.7c696.2,59.3,1291,562.3,1759.6,1482.2c436.1,853,633,1767.2,568,2610.6c-118.6,1503.3-770.8,2377.3-1926,2582C5290.7,4911.3,4850.8,4926.6,4630.9,4901.7z"/><path d="M6685-2339.2c-636.9-636.9-1587.4-856.8-2448.1-568c-355.7,118.6-661.8,306-948.6,583.3l-133.9,128.1l-286.9-82.2C1320.2-2723.7,396.5-3291.7,165-3938.1c-44-124.3-49.7-172.1-57.4-485.8l-7.7-350h4900h4900l-7.7,359.6c-9.6,390.2-23,451.4-153,698.1c-89.9,172.1-392.1,468.6-656,642.6c-350,231.4-864.5,470.5-1405.7,650.3c-225.7,76.5-828.1,254.4-830.1,246.7C6845.6-2178.6,6772.9-2251.3,6685-2339.2z"/></g></g>
</svg>